<svg xmlns="http://www.w3.org/2000/svg" viewBox="0 0 720 510" width="720" height="510" font-family="Manrope, Inter, system-ui, sans-serif">

  <rect width="720" height="510" rx="10" fill="white" stroke="#e8e3ea" stroke-width="1"/>

  <!-- ── HEADER ── -->
  <text x="22" y="42" font-size="22" font-weight="800" fill="#0f172a" letter-spacing="-0.5">Acme Studio</text>
  <rect x="173" y="26" width="52" height="20" rx="999" fill="#d1fae5" stroke="#a7f3d0" stroke-width="1"/>
  <text x="199" y="40" font-size="9" font-weight="700" fill="#047857" letter-spacing="0.5" text-anchor="middle">ACTIVE</text>

  <text x="22" y="60" font-size="10.5" fill="#94a3b8">&#9993; sam@acme-studio.com</text>

  <!-- Tabs -->
  <text x="22"  y="83" font-size="10.5" font-weight="600" fill="#0f172a">Overview</text>
  <line x1="22" y1="92" x2="77" y2="92" stroke="#0f172a" stroke-width="2"/>
  <text x="93"  y="83" font-size="10.5" font-weight="500" fill="#94a3b8">Projects (1)</text>
  <text x="178" y="83" font-size="10.5" font-weight="500" fill="#94a3b8">Domains &amp; Hosting</text>
  <text x="315" y="83" font-size="10.5" font-weight="500" fill="#94a3b8">Maintenances (1)</text>
  <text x="430" y="83" font-size="10.5" font-weight="500" fill="#94a3b8">Other Income</text>
  <text x="524" y="83" font-size="10.5" font-weight="500" fill="#94a3b8">Invoices</text>
  <text x="580" y="83" font-size="10.5" font-weight="500" fill="#94a3b8">Pipeline</text>
  <text x="637" y="83" font-size="10.5" font-weight="500" fill="#94a3b8">Tools</text>

  <line x1="0" y1="100" x2="720" y2="100" stroke="#e8e3ea" stroke-width="1"/>

  <!-- ── KPI CARDS ── -->
  <!-- Card 1: Active Projects -->
  <rect x="16"  y="116" width="161" height="82" rx="8" fill="white" stroke="#e8e3ea" stroke-width="1"/>
  <text x="28"  y="133" font-size="8" font-weight="700" fill="#94a3b8" letter-spacing="0.7">ACTIVE PROJECTS</text>
  <rect x="143" y="122" width="22" height="22" rx="6" fill="rgba(168,85,247,0.12)"/>
  <text x="154" y="137" font-size="13" text-anchor="middle">&#128640;</text>
  <text x="28"  y="165" font-size="20" font-weight="800" fill="#0f172a">1</text>
  <text x="28"  y="179" font-size="8" font-weight="600" fill="#94a3b8" letter-spacing="0.5">IN DELIVERY</text>

  <!-- Card 2: Total Value -->
  <rect x="187" y="116" width="161" height="82" rx="8" fill="white" stroke="#e8e3ea" stroke-width="1"/>
  <text x="199" y="133" font-size="8" font-weight="700" fill="#94a3b8" letter-spacing="0.7">TOTAL VALUE</text>
  <rect x="314" y="122" width="22" height="22" rx="6" fill="rgba(16,185,129,0.12)"/>
  <rect x="317" y="125" width="16" height="16" rx="2" fill="none" stroke="#10b981" stroke-width="1.5"/>
  <line x1="321" y1="133" x2="329" y2="133" stroke="#10b981" stroke-width="1.5"/>
  <text x="199" y="163" font-size="17" font-weight="800" fill="#0f172a">&#8364; 15,700</text>
  <text x="199" y="179" font-size="8" font-weight="600" fill="#94a3b8" letter-spacing="0.5">LIFETIME</text>

  <!-- Card 3: Invoiced YTD (green) -->
  <rect x="358" y="116" width="161" height="82" rx="8" fill="white" stroke="#e8e3ea" stroke-width="1"/>
  <text x="370" y="133" font-size="8" font-weight="700" fill="#94a3b8" letter-spacing="0.7">INVOICED YTD</text>
  <rect x="485" y="122" width="22" height="22" rx="6" fill="rgba(99,102,241,0.12)"/>
  <rect x="488" y="125" width="16" height="16" rx="2" fill="none" stroke="#6366f1" stroke-width="1.5"/>
  <line x1="488" y1="133" x2="496" y2="133" stroke="#6366f1" stroke-width="1.5"/>
  <line x1="492" y1="129" x2="492" y2="137" stroke="#6366f1" stroke-width="1.5"/>
  <text x="370" y="163" font-size="17" font-weight="800" fill="#047857">&#8364; 6,950</text>
  <text x="370" y="179" font-size="8" font-weight="600" fill="#94a3b8" letter-spacing="0.5">COLLECTED</text>

  <!-- Card 4: Pipeline -->
  <rect x="529" y="116" width="175" height="82" rx="8" fill="white" stroke="#e8e3ea" stroke-width="1"/>
  <text x="541" y="133" font-size="8" font-weight="700" fill="#94a3b8" letter-spacing="0.7">PIPELINE</text>
  <rect x="680" y="122" width="22" height="22" rx="6" fill="rgba(245,158,11,0.15)"/>
  <polygon points="691,126 700,142 682,142" fill="none" stroke="#f59e0b" stroke-width="1.5" stroke-linejoin="round"/>
  <text x="541" y="165" font-size="20" font-weight="800" fill="#0f172a">&#8212;</text>
  <text x="541" y="179" font-size="8" font-weight="600" fill="#94a3b8" letter-spacing="0.5">PENDING</text>

  <!-- ── STRATEGIC INTELLIGENCE ── -->
  <defs>
    <linearGradient id="si-grad" x1="0" y1="0" x2="0" y2="1">
      <stop offset="0%" stop-color="#6366f1" stop-opacity="0.07"/>
      <stop offset="100%" stop-color="#6366f1" stop-opacity="0.02"/>
    </linearGradient>
  </defs>
  <rect x="16" y="212" width="688" height="132" rx="8" fill="url(#si-grad)" stroke="rgba(99,102,241,0.18)" stroke-width="1"/>

  <text x="30" y="232" font-size="13" fill="#6366f1">&#10022;</text>
  <text x="46" y="232" font-size="12" font-weight="800" fill="#0f172a">Strategic Intelligence</text>
  <rect x="200" y="220" width="112" height="16" rx="999" fill="rgba(99,102,241,0.10)"/>
  <circle cx="211" cy="228" r="3.5" fill="#6366f1"/>
  <text x="218" y="232" font-size="8" font-weight="700" fill="#6366f1" letter-spacing="0.3">AI ENGINE ONLINE</text>

  <rect x="28" y="242" width="664" height="90" rx="6" fill="white" stroke="#e8e3ea" stroke-width="1"/>
  <text x="40" y="259" font-size="8" font-weight="700" fill="#94a3b8" letter-spacing="0.8">&#10022; AI ACCOUNT SUMMARY</text>
  <text x="40" y="278" font-size="10.5" fill="#475569">Acme is in good standing &#8212; <tspan font-weight="700" fill="#0f172a">YTD revenue &#8364; 6,950</tspan> against <tspan font-weight="700" fill="#0f172a">&#8364; 15,700 lifetime</tspan>. Mytour project on track for</text>
  <text x="40" y="297" font-size="10.5" fill="#475569">May handover. Hosting renews May 2026 &#8212; flag for proactive outreach in March.</text>
  <text x="40" y="320" font-size="10" fill="#94a3b8">&#8617; Regenerate</text>

  <!-- ── GROWTH METRICS ── -->
  <rect x="16" y="358" width="688" height="136" rx="8" fill="white" stroke="#e8e3ea" stroke-width="1"/>
  <text x="28" y="379" font-size="11.5" font-weight="700" fill="#0f172a">&#8599; Growth Metrics</text>

  <text x="28"  y="401" font-size="11" fill="#94a3b8">Revenue YoY</text>
  <text x="692" y="401" font-size="11" font-weight="600" fill="#047857" text-anchor="end">+5% vs 2025</text>
  <line x1="28" y1="410" x2="692" y2="410" stroke="#f0eef2" stroke-width="0.5"/>

  <text x="28"  y="422" font-size="11" fill="#94a3b8">Invoice consistency</text>
  <text x="692" y="422" font-size="11" font-weight="600" fill="#d97706" text-anchor="end">75% of months billed</text>
  <line x1="28" y1="431" x2="692" y2="431" stroke="#f0eef2" stroke-width="0.5"/>

  <text x="28"  y="443" font-size="11" fill="#94a3b8">Active services</text>
  <text x="692" y="443" font-size="11" font-weight="600" fill="#1e293b" text-anchor="end">1 project &#183; 1 maintenance &#183; 1 hosting</text>
  <line x1="28" y1="452" x2="692" y2="452" stroke="#f0eef2" stroke-width="0.5"/>

  <text x="28"  y="464" font-size="11" fill="#94a3b8">Domains</text>
  <text x="692" y="464" font-size="11" font-weight="600" fill="#1e293b" text-anchor="end">1</text>

</svg>
